<!--?xml version="1.0" encoding="UTF-8" standalone="no"?-->

<!-- Generated by graphviz version 2.28.0 (20110507.0327)
 -->
<!-- Title: test Pages: 1 -->
<svg width="310pt" height="346pt" viewBox="0.00 0.00 310.00 346.00" xmlns="http://www.w3.org/2000/svg" xmlns:xlink="http://www.w3.org/1999/xlink">
<g id="graph1" class="graph" transform="scale(1 1) rotate(0) translate(4 342)">
<title>test</title>
<polygon fill="white" stroke="white" points="-4,5 -4,-342 307,-342 307,5 -4,5"></polygon>
<g id="graph2" class="cluster"><title>cluster_0</title>
<polygon fill="lightpink" stroke="lightpink" points="8,-8 8,-330 294,-330 294,-8 8,-8"></polygon>
</g>
<!-- a -->
<g id="node2" class="node"><title>a</title>
<ellipse fill="white" stroke="white" cx="140" cy="-304" rx="27" ry="18"></ellipse>
<text text-anchor="middle" x="140" y="-299.8" font-family="Times,serif" font-size="14.00">a</text>
</g>
<!-- b -->
<g id="node4" class="node"><title>b</title>
<ellipse fill="white" stroke="white" cx="43" cy="-214" rx="27" ry="18"></ellipse>
<text text-anchor="middle" x="43" y="-209.8" font-family="Times,serif" font-size="14.00">b</text>
</g>
<!-- a&#45;&#45;b -->
<g id="edge3" class="edge"><title>a--b</title>
<path fill="none" stroke="black" d="M124.415,-288.861C106.314,-272.44 76.6308,-245.51 58.5461,-229.104"></path>
<text text-anchor="middle" x="104.5" y="-254.8" font-family="Times,serif" font-size="14.00">1</text>
</g>
<!-- f -->
<g id="node6" class="node"><title>f</title>
<ellipse fill="white" stroke="white" cx="115" cy="-214" rx="27" ry="18"></ellipse>
<text text-anchor="middle" x="115" y="-209.8" font-family="Times,serif" font-size="14.00">f</text>
</g>
<!-- a&#45;&#45;f -->
<g id="edge5" class="edge"><title>a--f</title>
<path fill="none" stroke="black" d="M135.18,-286.033C130.753,-270.45 124.228,-247.482 119.805,-231.915"></path>
<text text-anchor="middle" x="132.5" y="-254.8" font-family="Times,serif" font-size="14.00">2</text>
</g>
<!-- g -->
<g id="node8" class="node"><title>g</title>
<ellipse fill="white" stroke="white" cx="187" cy="-214" rx="27" ry="18"></ellipse>
<text text-anchor="middle" x="187" y="-209.8" font-family="Times,serif" font-size="14.00">g</text>
</g>
<!-- a&#45;&#45;g -->
<g id="edge7" class="edge"><title>a--g</title>
<path fill="none" stroke="black" d="M148.621,-286.859C157.048,-271.081 169.812,-247.182 178.275,-231.336"></path>
<text text-anchor="middle" x="170.5" y="-254.8" font-family="Times,serif" font-size="14.00">3</text>
</g>
<!-- j -->
<g id="node10" class="node"><title>j</title>
<ellipse fill="white" stroke="white" cx="259" cy="-214" rx="27" ry="18"></ellipse>
<text text-anchor="middle" x="259" y="-209.8" font-family="Times,serif" font-size="14.00">j</text>
</g>
<!-- a&#45;&#45;j -->
<g id="edge9" class="edge"><title>a--j</title>
<path fill="none" stroke="black" d="M157.559,-290.015C180.058,-273.377 218.836,-244.701 241.369,-228.038"></path>
<text text-anchor="middle" x="213.5" y="-254.8" font-family="Times,serif" font-size="14.00">4</text>
</g>
<!-- d -->
<g id="node12" class="node"><title>d</title>
<ellipse fill="white" stroke="white" cx="43" cy="-124" rx="27" ry="18"></ellipse>
<text text-anchor="middle" x="43" y="-119.8" font-family="Times,serif" font-size="14.00">d</text>
</g>
<!-- b&#45;&#45;d -->
<g id="edge11" class="edge"><title>b--d</title>
<path fill="none" stroke="black" d="M43,-195.614C43,-180.086 43,-157.475 43,-142.05"></path>
<text text-anchor="middle" x="46.5" y="-164.8" font-family="Times,serif" font-size="14.00">5</text>
</g>
<!-- e -->
<g id="node14" class="node"><title>e</title>
<ellipse fill="white" stroke="white" cx="115" cy="-124" rx="27" ry="18"></ellipse>
<text text-anchor="middle" x="115" y="-119.8" font-family="Times,serif" font-size="14.00">e</text>
</g>
<!-- b&#45;&#45;e -->
<g id="edge13" class="edge"><title>b--e</title>
<path fill="none" stroke="black" d="M55.5414,-197.672C68.7566,-181.52 89.4416,-156.238 102.602,-140.153"></path>
<text text-anchor="middle" x="89.5" y="-164.8" font-family="Times,serif" font-size="14.00">6</text>
</g>
<!-- h -->
<g id="node16" class="node"><title>h</title>
<ellipse fill="white" stroke="white" cx="187" cy="-124" rx="27" ry="18"></ellipse>
<text text-anchor="middle" x="187" y="-119.8" font-family="Times,serif" font-size="14.00">h</text>
</g>
<!-- b&#45;&#45;h -->
<g id="edge15" class="edge"><title>b--h</title>
<path fill="none" stroke="black" d="M62.4205,-201.132C89.9039,-184.337 139.861,-153.807 167.427,-136.961"></path>
<text text-anchor="middle" x="130.5" y="-164.8" font-family="Times,serif" font-size="14.00">7</text>
</g>
<!-- i -->
<g id="node18" class="node"><title>i</title>
<ellipse fill="white" stroke="white" cx="259" cy="-124" rx="27" ry="18"></ellipse>
<text text-anchor="middle" x="259" y="-119.8" font-family="Times,serif" font-size="14.00">i</text>
</g>
<!-- g&#45;&#45;i -->
<g id="edge17" class="edge"><title>g--i</title>
<path fill="none" stroke="black" d="M199.541,-197.672C212.757,-181.52 233.442,-156.238 246.602,-140.153"></path>
<text text-anchor="middle" x="232.5" y="-164.8" font-family="Times,serif" font-size="14.00">8</text>
</g>
<!-- c -->
<g id="node20" class="node"><title>c</title>
<ellipse fill="white" stroke="white" cx="115" cy="-34" rx="27" ry="18"></ellipse>
<text text-anchor="middle" x="115" y="-29.8" font-family="Times,serif" font-size="14.00">c</text>
</g>
<!-- e&#45;&#45;c -->
<g id="edge19" class="edge"><title>e--c</title>
<path fill="none" stroke="black" d="M115,-105.614C115,-90.0862 115,-67.4751 115,-52.0504"></path>
<text text-anchor="middle" x="118.5" y="-74.8" font-family="Times,serif" font-size="14.00">9</text>
</g>
</g>
</svg>
