<!--?xml version="1.0" encoding="UTF-8" standalone="no"?-->

<!-- Generated by graphviz version 2.28.0 (20110507.0327)
 -->
<!-- Title: test Pages: 1 -->
<svg width="238pt" height="436pt" viewBox="0.00 0.00 238.00 436.00" xmlns="http://www.w3.org/2000/svg" xmlns:xlink="http://www.w3.org/1999/xlink">
<g id="graph1" class="graph" transform="scale(1 1) rotate(0) translate(4 432)">
<title>test</title>
<polygon fill="white" stroke="white" points="-4,5 -4,-432 235,-432 235,5 -4,5"></polygon>
<g id="graph2" class="cluster"><title>cluster_0</title>
<polygon fill="lightblue" stroke="lightblue" points="8,-8 8,-420 222,-420 222,-8 8,-8"></polygon>
</g>
<!-- a -->
<g id="node2" class="node"><title>a</title>
<ellipse fill="white" stroke="white" cx="150" cy="-394" rx="27" ry="18"></ellipse>
<text text-anchor="middle" x="150" y="-389.8" font-family="Times,serif" font-size="14.00">a</text>
</g>
<!-- b -->
<g id="node4" class="node"><title>b</title>
<ellipse fill="white" stroke="white" cx="115" cy="-304" rx="27" ry="18"></ellipse>
<text text-anchor="middle" x="115" y="-299.8" font-family="Times,serif" font-size="14.00">b</text>
</g>
<!-- a&#45;&#45;b -->
<g id="edge3" class="edge"><title>a--b</title>
<path fill="none" stroke="black" d="M143.417,-376.448C137.159,-360.715 127.801,-337.186 121.554,-321.478"></path>
<text text-anchor="middle" x="138.5" y="-344.8" font-family="Times,serif" font-size="14.00">1</text>
</g>
<!-- g -->
<g id="node16" class="node"><title>g</title>
<ellipse fill="white" stroke="white" cx="187" cy="-304" rx="27" ry="18"></ellipse>
<text text-anchor="middle" x="187" y="-299.8" font-family="Times,serif" font-size="14.00">g</text>
</g>
<!-- a&#45;&#45;g -->
<g id="edge15" class="edge"><title>a--g</title>
<path fill="none" stroke="black" d="M156.959,-376.448C163.574,-360.715 173.467,-337.186 180.072,-321.478"></path>
<text text-anchor="middle" x="174.5" y="-344.8" font-family="Times,serif" font-size="14.00">7</text>
</g>
<!-- d -->
<g id="node6" class="node"><title>d</title>
<ellipse fill="white" stroke="white" cx="43" cy="-214" rx="27" ry="18"></ellipse>
<text text-anchor="middle" x="43" y="-209.8" font-family="Times,serif" font-size="14.00">d</text>
</g>
<!-- b&#45;&#45;d -->
<g id="edge5" class="edge"><title>b--d</title>
<path fill="none" stroke="black" d="M102.459,-287.672C89.2434,-271.52 68.5584,-246.238 55.3977,-230.153"></path>
<text text-anchor="middle" x="89.5" y="-254.8" font-family="Times,serif" font-size="14.00">2</text>
</g>
<!-- e -->
<g id="node10" class="node"><title>e</title>
<ellipse fill="white" stroke="white" cx="115" cy="-214" rx="27" ry="18"></ellipse>
<text text-anchor="middle" x="115" y="-209.8" font-family="Times,serif" font-size="14.00">e</text>
</g>
<!-- b&#45;&#45;e -->
<g id="edge9" class="edge"><title>b--e</title>
<path fill="none" stroke="black" d="M115,-285.614C115,-270.086 115,-247.475 115,-232.05"></path>
<text text-anchor="middle" x="118.5" y="-254.8" font-family="Times,serif" font-size="14.00">4</text>
</g>
<!-- f -->
<g id="node8" class="node"><title>f</title>
<ellipse fill="white" stroke="white" cx="43" cy="-124" rx="27" ry="18"></ellipse>
<text text-anchor="middle" x="43" y="-119.8" font-family="Times,serif" font-size="14.00">f</text>
</g>
<!-- d&#45;&#45;f -->
<g id="edge7" class="edge"><title>d--f</title>
<path fill="none" stroke="black" d="M43,-195.614C43,-180.086 43,-157.475 43,-142.05"></path>
<text text-anchor="middle" x="46.5" y="-164.8" font-family="Times,serif" font-size="14.00">3</text>
</g>
<!-- c -->
<g id="node12" class="node"><title>c</title>
<ellipse fill="white" stroke="white" cx="115" cy="-124" rx="27" ry="18"></ellipse>
<text text-anchor="middle" x="115" y="-119.8" font-family="Times,serif" font-size="14.00">c</text>
</g>
<!-- e&#45;&#45;c -->
<g id="edge11" class="edge"><title>e--c</title>
<path fill="none" stroke="black" d="M115,-195.614C115,-180.086 115,-157.475 115,-142.05"></path>
<text text-anchor="middle" x="118.5" y="-164.8" font-family="Times,serif" font-size="14.00">5</text>
</g>
<!-- h -->
<g id="node14" class="node"><title>h</title>
<ellipse fill="white" stroke="white" cx="115" cy="-34" rx="27" ry="18"></ellipse>
<text text-anchor="middle" x="115" y="-29.8" font-family="Times,serif" font-size="14.00">h</text>
</g>
<!-- c&#45;&#45;h -->
<g id="edge13" class="edge"><title>c--h</title>
<path fill="none" stroke="black" d="M115,-105.614C115,-90.0862 115,-67.4751 115,-52.0504"></path>
<text text-anchor="middle" x="118.5" y="-74.8" font-family="Times,serif" font-size="14.00">6</text>
</g>
<!-- i -->
<g id="node18" class="node"><title>i</title>
<ellipse fill="white" stroke="white" cx="187" cy="-214" rx="27" ry="18"></ellipse>
<text text-anchor="middle" x="187" y="-209.8" font-family="Times,serif" font-size="14.00">i</text>
</g>
<!-- g&#45;&#45;i -->
<g id="edge17" class="edge"><title>g--i</title>
<path fill="none" stroke="black" d="M187,-285.614C187,-270.086 187,-247.475 187,-232.05"></path>
<text text-anchor="middle" x="190.5" y="-254.8" font-family="Times,serif" font-size="14.00">8</text>
</g>
<!-- j -->
<g id="node20" class="node"><title>j</title>
<ellipse fill="white" stroke="white" cx="187" cy="-124" rx="27" ry="18"></ellipse>
<text text-anchor="middle" x="187" y="-119.8" font-family="Times,serif" font-size="14.00">j</text>
</g>
<!-- i&#45;&#45;j -->
<g id="edge19" class="edge"><title>i--j</title>
<path fill="none" stroke="black" d="M187,-195.614C187,-180.086 187,-157.475 187,-142.05"></path>
<text text-anchor="middle" x="190.5" y="-164.8" font-family="Times,serif" font-size="14.00">9</text>
</g>
</g>
</svg>
