<!--?xml version="1.0" encoding="UTF-8" standalone="no"?-->

<!-- Generated by graphviz version 2.28.0 (20110507.0327)
 -->
<!-- Title: graphname Pages: 1 -->
<svg width="278pt" height="332pt" viewBox="0.00 0.00 278.00 332.00" xmlns="http://www.w3.org/2000/svg" xmlns:xlink="http://www.w3.org/1999/xlink">
<g id="graph1" class="graph" transform="scale(1 1) rotate(0) translate(4 328)">
<title>graphname</title>
<polygon fill="white" stroke="white" points="-4,5 -4,-328 275,-328 275,5 -4,5"></polygon>
<!-- 1 -->
<g id="node1" class="node"><title>1</title>
<ellipse fill="none" stroke="black" cx="171" cy="-306" rx="27" ry="18"></ellipse>
<text text-anchor="middle" x="171" y="-301.8" font-family="Times,serif" font-size="14.00">1</text>
</g>
<!-- 2 -->
<g id="node3" class="node"><title>2</title>
<ellipse fill="none" stroke="black" cx="99" cy="-234" rx="27" ry="18"></ellipse>
<text text-anchor="middle" x="99" y="-229.8" font-family="Times,serif" font-size="14.00">2</text>
</g>
<!-- 1&#45;&#45;2 -->
<g id="edge2" class="edge"><title>1--2</title>
<path fill="none" stroke="black" d="M156.43,-290.834C144.02,-278.77 126.269,-261.512 113.796,-249.385"></path>
</g>
<!-- 9 -->
<g id="node14" class="node"><title>9</title>
<ellipse fill="none" stroke="black" cx="171" cy="-234" rx="27" ry="18"></ellipse>
<text text-anchor="middle" x="171" y="-229.8" font-family="Times,serif" font-size="14.00">9</text>
</g>
<!-- 1&#45;&#45;9 -->
<g id="edge13" class="edge"><title>1--9</title>
<path fill="none" stroke="black" d="M171,-287.697C171,-276.846 171,-262.917 171,-252.104"></path>
</g>
<!-- 12 -->
<g id="node19" class="node"><title>12</title>
<ellipse fill="none" stroke="black" cx="243" cy="-234" rx="27" ry="18"></ellipse>
<text text-anchor="middle" x="243" y="-229.8" font-family="Times,serif" font-size="14.00">12</text>
</g>
<!-- 1&#45;&#45;12 -->
<g id="edge18" class="edge"><title>1--12</title>
<path fill="none" stroke="black" d="M185.57,-290.834C197.98,-278.77 215.731,-261.512 228.204,-249.385"></path>
</g>
<!-- 3 -->
<g id="node4" class="node"><title>3</title>
<ellipse fill="none" stroke="black" cx="99" cy="-162" rx="27" ry="18"></ellipse>
<text text-anchor="middle" x="99" y="-157.8" font-family="Times,serif" font-size="14.00">3</text>
</g>
<!-- 2&#45;&#45;3 -->
<g id="edge3" class="edge"><title>2--3</title>
<path fill="none" stroke="black" d="M99,-215.697C99,-204.846 99,-190.917 99,-180.104"></path>
</g>
<!-- 4 -->
<g id="node5" class="node"><title>4</title>
<ellipse fill="none" stroke="black" cx="27" cy="-90" rx="27" ry="18"></ellipse>
<text text-anchor="middle" x="27" y="-85.8" font-family="Times,serif" font-size="14.00">4</text>
</g>
<!-- 3&#45;&#45;4 -->
<g id="edge4" class="edge"><title>3--4</title>
<path fill="none" stroke="black" d="M84.4297,-146.834C72.0202,-134.77 54.2694,-117.512 41.7957,-105.385"></path>
</g>
<!-- 5 -->
<g id="node7" class="node"><title>5</title>
<ellipse fill="none" stroke="black" cx="99" cy="-90" rx="27" ry="18"></ellipse>
<text text-anchor="middle" x="99" y="-85.8" font-family="Times,serif" font-size="14.00">5</text>
</g>
<!-- 3&#45;&#45;5 -->
<g id="edge6" class="edge"><title>3--5</title>
<path fill="none" stroke="black" d="M99,-143.697C99,-132.846 99,-118.917 99,-108.104"></path>
</g>
<!-- 8 -->
<g id="node12" class="node"><title>8</title>
<ellipse fill="none" stroke="black" cx="171" cy="-90" rx="27" ry="18"></ellipse>
<text text-anchor="middle" x="171" y="-85.8" font-family="Times,serif" font-size="14.00">8</text>
</g>
<!-- 3&#45;&#45;8 -->
<g id="edge11" class="edge"><title>3--8</title>
<path fill="none" stroke="black" d="M113.57,-146.834C125.98,-134.77 143.731,-117.512 156.204,-105.385"></path>
</g>
<!-- 6 -->
<g id="node8" class="node"><title>6</title>
<ellipse fill="none" stroke="black" cx="63" cy="-18" rx="27" ry="18"></ellipse>
<text text-anchor="middle" x="63" y="-13.8" font-family="Times,serif" font-size="14.00">6</text>
</g>
<!-- 5&#45;&#45;6 -->
<g id="edge7" class="edge"><title>5--6</title>
<path fill="none" stroke="black" d="M90.6504,-72.7646C84.8345,-61.456 77.1103,-46.4367 71.3043,-35.1473"></path>
</g>
<!-- 7 -->
<g id="node10" class="node"><title>7</title>
<ellipse fill="none" stroke="black" cx="135" cy="-18" rx="27" ry="18"></ellipse>
<text text-anchor="middle" x="135" y="-13.8" font-family="Times,serif" font-size="14.00">7</text>
</g>
<!-- 5&#45;&#45;7 -->
<g id="edge9" class="edge"><title>5--7</title>
<path fill="none" stroke="black" d="M107.35,-72.7646C113.165,-61.456 120.89,-46.4367 126.696,-35.1473"></path>
</g>
<!-- 10 -->
<g id="node15" class="node"><title>10</title>
<ellipse fill="none" stroke="black" cx="171" cy="-162" rx="27" ry="18"></ellipse>
<text text-anchor="middle" x="171" y="-157.8" font-family="Times,serif" font-size="14.00">10</text>
</g>
<!-- 9&#45;&#45;10 -->
<g id="edge14" class="edge"><title>9--10</title>
<path fill="none" stroke="black" d="M171,-215.697C171,-204.846 171,-190.917 171,-180.104"></path>
</g>
<!-- 11 -->
<g id="node17" class="node"><title>11</title>
<ellipse fill="none" stroke="black" cx="243" cy="-162" rx="27" ry="18"></ellipse>
<text text-anchor="middle" x="243" y="-157.8" font-family="Times,serif" font-size="14.00">11</text>
</g>
<!-- 9&#45;&#45;11 -->
<g id="edge16" class="edge"><title>9--11</title>
<path fill="none" stroke="black" d="M185.57,-218.834C197.98,-206.77 215.731,-189.512 228.204,-177.385"></path>
</g>
</g>
</svg>
